<?xml version="1.0" encoding="utf-8"?>
<!-- Generator: Adobe Illustrator 27.9.0, SVG Export Plug-In . SVG Version: 6.00 Build 0)  -->
<svg version="1.1" id="Calque_1" xmlns="http://www.w3.org/2000/svg" xmlns:xlink="http://www.w3.org/1999/xlink" x="0px" y="0px"
	 viewBox="0 0 595.28 841.89" style="enable-background:new 0 0 595.28 841.89;" xml:space="preserve">
<style type="text/css">
	.st0{fill:#CDA150;}
</style>
<g>
	<path class="st0" d="M296.14,421.35c-0.14-0.22-0.71-0.39-0.53-0.4c0.18-0.01,0.53-0.47,0.71-0.56c0.18-0.08,0.21,0,0.45,1.3
		c0,0.01,0,0.02,0.01,0.04C296.56,421.64,296.23,421.5,296.14,421.35z M296.45,417.75c0,0,0.2-0.01,0.22,0.1
		c0.01,0.11,0.01,0.57-0.25,0.67C296.42,418.52,296.27,417.96,296.45,417.75z M298.97,417.72c0.02-0.05,0.09-0.16,0.23-0.28
		c0.15-0.12,0.31-0.19,0.36-0.21C299.5,417.61,299.11,417.7,298.97,417.72z M300.03,421.44c0.15-0.06,0.54-2.56,0.56-2.76
		c0.01-0.19-0.08-0.32-0.11-0.5c-0.03-0.18-0.39-0.17-0.39-0.17s-0.52-0.85-0.52-0.84c-0.01,0-0.21,0.07-0.4,0.23
		c-0.19,0.16-0.25,0.31-0.25,0.32h0l0.67,0.72c-0.07,0.19,0.35,0.25,0.42,0.49c0.07,0.24-0.38,1.42-0.53,1.49
		c-0.15,0.07-1-0.91-1.18-1.14c-0.18-0.24-0.7-0.42-0.7-0.42c-0.1-0.14-0.11-0.4,0.03-0.61c0.14-0.21,0.4-0.11,0.63-0.14
		c0.22-0.03,0.08-0.45,0.07-0.57c-0.01-0.13,0.11-0.08,0.18-0.11c0.07-0.03-0.05-0.24-0.14-0.34c-0.08-0.1-0.1-0.27-0.13-0.61
		c-0.03-0.35-0.64-0.68-1.11-0.67c-0.47,0.01-0.71,0.25-0.86,0.49c-0.15,0.24-0.14,0.27-0.32,0.17c-0.18-0.1-0.24,0.55-0.42,0.77
		c-0.18,0.22-0.21,1.17-0.21,1.17l0.58,0.88c-0.6,0.4-1.35,1.53-1.44,1.73c-0.08,0.19-0.04,0.24,0.6,0.61
		c0.52,0.3,1.43,0.59,1.76,0.69c-0.07,0.88-0.61,1.36-0.69,1.68c-0.1,0.39,0.18,0.85,0.39,1.1c0.21,0.25,0.11,0.61,0.11,0.61
		l0.92,0.11l0.91-0.13l0.95-0.25c-0.14-0.24-0.06-0.68,0-1c0.06-0.32,0.78-0.64,0.84-1.39c0.05-0.75-0.99-1.85-0.99-1.85
		C299.38,421.42,299.87,421.5,300.03,421.44z"/>
	<path class="st0" d="M300.21,424.88l-5.92-8.32c0.85-0.63,1.9-1.01,3.04-1.01c2.82,0,5.11,2.29,5.11,5.11
		C302.43,422.41,301.55,423.96,300.21,424.88z M292.22,420.66c0-1.48,0.63-2.81,1.63-3.74l5.87,8.25c-0.72,0.38-1.53,0.6-2.4,0.6
		C294.51,425.77,292.22,423.48,292.22,420.66z M297.32,414.99c-3.13,0-5.67,2.54-5.67,5.67c0,3.13,2.54,5.67,5.67,5.67
		c3.13,0,5.67-2.54,5.67-5.67C302.99,417.54,300.45,414.99,297.32,414.99z"/>
</g>
</svg>
